# xmcd CD database file
#
# Track frame offsets:
#	150
#	27597
#	55125
#	78915
#	100922
#	127192
#	147780
#	175925
#	199335
#
# Disc length: 3118 seconds
#
# Revision: 1
# Processed by: cddbd v1.4PL0 Copyright (c) Steve Scherf et al.
# Submitted via: CDex 1.50Beta6
#
DISCID=7e0c2c09
DTITLE=Andy Snitzer - Alfie's Theme
DYEAR=1900
DGENRE=Jazz+Funk
TTITLE0=Alfie's Theme
TTITLE1=Mercy Mercy Mercy
TTITLE2=Easy Street
TTITLE3=Tenor Madness
TTITLE4=The Dream
TTITLE5=Stan's Shuffle
TTITLE6=Too Young To Go Steady
TTITLE7=Softly As In A Morning Sunrise
TTITLE8=Superstar
EXTD=
EXTT0=
EXTT1=
EXTT2=
EXTT3=
EXTT4=
EXTT5=
EXTT6=
EXTT7=
EXTT8=
PLAYORDER=
